<mxfile host="drawio.corp.amazon.com" modified="2024-06-06T09:55:45.612Z" agent="Mozilla/5.0 (Macintosh; Intel Mac OS X 10_15_7) AppleWebKit/537.36 (KHTML, like Gecko) Chrome/125.0.0.0 Safari/537.36" etag="ddFnYnxN9tGOaJsYukF2" version="21.7.4" type="device">
  <diagram name="Page-1" id="lUmo0eGD1-4P-tSZeQlJ">
    <mxGraphModel dx="1114" dy="693" grid="1" gridSize="10" guides="1" tooltips="1" connect="1" arrows="1" fold="1" page="1" pageScale="1" pageWidth="1169" pageHeight="827" math="0" shadow="0">
      <root>
        <mxCell id="0" />
        <mxCell id="1" parent="0" />
        <mxCell id="PWP0A8HhWE3OCh_AXD60-1" value="Glue Database" style="sketch=0;points=[[0,0,0],[0.25,0,0],[0.5,0,0],[0.75,0,0],[1,0,0],[0,1,0],[0.25,1,0],[0.5,1,0],[0.75,1,0],[1,1,0],[0,0.25,0],[0,0.5,0],[0,0.75,0],[1,0.25,0],[1,0.5,0],[1,0.75,0]];outlineConnect=0;fontColor=#232F3E;fillColor=#8C4FFF;strokeColor=#ffffff;dashed=0;verticalLabelPosition=bottom;verticalAlign=top;align=center;html=1;fontSize=12;fontStyle=0;aspect=fixed;shape=mxgraph.aws4.resourceIcon;resIcon=mxgraph.aws4.glue;" vertex="1" parent="1">
          <mxGeometry x="80" y="40" width="78" height="78" as="geometry" />
        </mxCell>
        <mxCell id="PWP0A8HhWE3OCh_AXD60-2" value="Lake Formation&lt;br&gt;Team Tag Association" style="sketch=0;points=[[0,0,0],[0.25,0,0],[0.5,0,0],[0.75,0,0],[1,0,0],[0,1,0],[0.25,1,0],[0.5,1,0],[0.75,1,0],[1,1,0],[0,0.25,0],[0,0.5,0],[0,0.75,0],[1,0.25,0],[1,0.5,0],[1,0.75,0]];outlineConnect=0;fontColor=#232F3E;fillColor=#8C4FFF;strokeColor=#ffffff;dashed=0;verticalLabelPosition=bottom;verticalAlign=top;align=center;html=1;fontSize=12;fontStyle=0;aspect=fixed;shape=mxgraph.aws4.resourceIcon;resIcon=mxgraph.aws4.lake_formation;" vertex="1" parent="1">
          <mxGeometry x="80" y="320" width="78" height="78" as="geometry" />
        </mxCell>
        <mxCell id="PWP0A8HhWE3OCh_AXD60-3" value="Glue Crawler" style="sketch=0;outlineConnect=0;fontColor=#232F3E;gradientColor=none;fillColor=#8C4FFF;strokeColor=none;dashed=0;verticalLabelPosition=bottom;verticalAlign=top;align=center;html=1;fontSize=12;fontStyle=0;aspect=fixed;pointerEvents=1;shape=mxgraph.aws4.glue_crawlers;" vertex="1" parent="1">
          <mxGeometry x="80" y="190" width="78" height="78" as="geometry" />
        </mxCell>
        <mxCell id="PWP0A8HhWE3OCh_AXD60-4" value="Glue Crawler&lt;br&gt;Lake Formation Permissions" style="sketch=0;points=[[0,0,0],[0.25,0,0],[0.5,0,0],[0.75,0,0],[1,0,0],[0,1,0],[0.25,1,0],[0.5,1,0],[0.75,1,0],[1,1,0],[0,0.25,0],[0,0.5,0],[0,0.75,0],[1,0.25,0],[1,0.5,0],[1,0.75,0]];outlineConnect=0;fontColor=#232F3E;fillColor=#8C4FFF;strokeColor=#ffffff;dashed=0;verticalLabelPosition=bottom;verticalAlign=top;align=center;html=1;fontSize=12;fontStyle=0;aspect=fixed;shape=mxgraph.aws4.resourceIcon;resIcon=mxgraph.aws4.lake_formation;" vertex="1" parent="1">
          <mxGeometry x="240" y="190" width="78" height="78" as="geometry" />
        </mxCell>
        <mxCell id="PWP0A8HhWE3OCh_AXD60-5" value="For All Resources&lt;br&gt;SSM Parameter" style="sketch=0;outlineConnect=0;fontColor=#232F3E;gradientColor=none;fillColor=#E7157B;strokeColor=none;dashed=0;verticalLabelPosition=bottom;verticalAlign=top;align=center;html=1;fontSize=12;fontStyle=0;aspect=fixed;pointerEvents=1;shape=mxgraph.aws4.parameter_store;" vertex="1" parent="1">
          <mxGeometry x="400" y="40" width="75" height="78" as="geometry" />
        </mxCell>
        <mxCell id="PWP0A8HhWE3OCh_AXD60-6" value="Dataset&lt;br&gt;SSM Parameter" style="sketch=0;outlineConnect=0;fontColor=#232F3E;gradientColor=none;fillColor=#E7157B;strokeColor=none;dashed=0;verticalLabelPosition=bottom;verticalAlign=top;align=center;html=1;fontSize=12;fontStyle=0;aspect=fixed;pointerEvents=1;shape=mxgraph.aws4.parameter_store;" vertex="1" parent="1">
          <mxGeometry x="240" y="40" width="75" height="78" as="geometry" />
        </mxCell>
      </root>
    </mxGraphModel>
  </diagram>
</mxfile>
